<?xml version="1.0" encoding="utf-8"?>
<svg version="1.1" id="Layer_1" xmlns="http://www.w3.org/2000/svg" xmlns:xlink="http://www.w3.org/1999/xlink" x="0px" y="0px"
	 viewBox="0 0 339.8 90" style="enable-background:new 0 0 339.8 90;" xml:space="preserve">
<style type="text/css">
	.st0{fill:#9E9E9E;}
	.st1{fill:#606060;}
	.st2{fill:none;stroke:#DE4326;stroke-width:3.7124;stroke-miterlimit:10;}
	.st3{fill:#DE4326;}
</style>
<g>
	<path class="st0" d="M77.6,32.4l-1.9,4.4h-3.5l8.4-19.2h3.5l8.4,19.2h-3.5l-1.9-4.4H77.6z M85.9,29.4l-3.5-7.9L79,29.4H85.9z"/>
	<path class="st0" d="M104.8,30.1v-7.9h3.1v14.6h-3.1v-2.7c-0.5,0.9-1.2,1.6-2,2.1c-0.9,0.5-1.8,0.8-2.8,0.8c-1.6,0-3-0.5-4-1.5
		c-1-1-1.5-2.5-1.5-4.4v-8.9h3.1v8c0,2.7,1.1,4,3.3,4c1.1,0,2-0.4,2.8-1.1C104.4,32.5,104.8,31.4,104.8,30.1z"/>
	<path class="st0" d="M122.7,32.4c0,1.4-0.5,2.5-1.5,3.3c-1,0.8-2.3,1.2-3.9,1.2c-1.1,0-2.2-0.2-3.3-0.6c-1.1-0.4-2.2-0.9-3-1.6
		l1.5-2.4c1.7,1.3,3.3,1.9,4.9,1.9c0.7,0,1.2-0.2,1.6-0.5c0.4-0.3,0.6-0.7,0.6-1.2c0-0.7-1-1.4-2.9-2c-0.1-0.1-0.3-0.1-0.3-0.1
		c-3-0.8-4.6-2.2-4.6-4.1c0-1.4,0.5-2.4,1.6-3.2c1.1-0.8,2.4-1.2,4.1-1.2c1.7,0,3.3,0.5,4.8,1.5l-1.2,2.3c-1.2-0.8-2.5-1.2-3.9-1.2
		c-0.7,0-1.3,0.1-1.8,0.4c-0.5,0.3-0.7,0.7-0.7,1.2c0,0.5,0.2,0.8,0.7,1c0.3,0.2,0.8,0.3,1.4,0.5s1.1,0.3,1.6,0.4
		c0.5,0.1,0.9,0.3,1.3,0.5c0.4,0.2,0.9,0.4,1.4,0.8C122.2,30,122.7,31,122.7,32.4z"/>
	<path class="st0" d="M130,24.6v7.4c0,0.7,0.2,1.2,0.5,1.7c0.4,0.4,0.9,0.6,1.5,0.6s1.3-0.3,1.9-1l1.3,2.2c-1.1,1-2.3,1.5-3.6,1.5
		c-1.3,0-2.4-0.5-3.3-1.4c-0.9-0.9-1.4-2.1-1.4-3.7v-7.3h-1.8v-2.5h1.8v-4.6h3.1v4.6h3.8v2.5H130z"/>
	<path class="st0" d="M145.3,25.1c-1.5,0-2.7,0.5-3.4,1.5s-1.2,2.3-1.2,4v6.3h-3.1V22.2h3.1v2.9c0.5-0.9,1.2-1.7,2-2.2
		c0.8-0.6,1.8-0.9,2.7-0.9l0,3.1C145.4,25.1,145.4,25.1,145.3,25.1z"/>
	<path class="st0" d="M160.2,36.8h-2.8v-1.9c-1.2,1.4-2.8,2.2-4.9,2.2c-1.5,0-2.8-0.4-3.8-1.3s-1.5-2-1.5-3.4c0-1.4,0.5-2.5,1.6-3.2
		c1.1-0.7,2.5-1.1,4.3-1.1h4v-0.5c0-1.9-1.1-2.9-3.2-2.9c-1.4,0-2.8,0.5-4.2,1.5l-1.4-1.9c1.8-1.4,3.8-2.1,6-2.1
		c1.7,0,3.1,0.4,4.2,1.3s1.6,2.2,1.6,4.1V36.8z M157.2,31.3v-1.2h-3.5c-2.2,0-3.3,0.7-3.3,2.1c0,0.7,0.3,1.3,0.8,1.6
		c0.5,0.4,1.3,0.6,2.3,0.6c1,0,1.8-0.3,2.6-0.8C156.8,33,157.2,32.3,157.2,31.3z"/>
	<path class="st0" d="M167.6,36.8h-3.1V16.4h3.1V36.8z"/>
	<path class="st0" d="M172.2,19.3c-0.4-0.4-0.6-0.8-0.6-1.4c0-0.5,0.2-1,0.6-1.4c0.4-0.4,0.8-0.6,1.4-0.6c0.5,0,1,0.2,1.4,0.6
		c0.4,0.4,0.6,0.8,0.6,1.4c0,0.5-0.2,1-0.6,1.4c-0.4,0.4-0.8,0.6-1.4,0.6C173,19.8,172.6,19.7,172.2,19.3z M175.1,36.8H172V22.2h3.1
		V36.8z"/>
	<path class="st0" d="M191.3,36.8h-2.8v-1.9c-1.2,1.4-2.8,2.2-4.9,2.2c-1.5,0-2.8-0.4-3.8-1.3s-1.5-2-1.5-3.4c0-1.4,0.5-2.5,1.6-3.2
		c1.1-0.7,2.5-1.1,4.3-1.1h4v-0.5c0-1.9-1.1-2.9-3.2-2.9c-1.4,0-2.8,0.5-4.2,1.5l-1.4-1.9c1.8-1.4,3.8-2.1,6-2.1
		c1.7,0,3.1,0.4,4.2,1.3s1.6,2.2,1.6,4.1V36.8z M188.3,31.3v-1.2h-3.5c-2.2,0-3.3,0.7-3.3,2.1c0,0.7,0.3,1.3,0.8,1.6
		c0.5,0.4,1.3,0.6,2.3,0.6c1,0,1.8-0.3,2.6-0.8C187.9,33,188.3,32.3,188.3,31.3z"/>
	<path class="st0" d="M198.7,28.9v7.9h-3.1V22.2h3.1v2.7c0.5-0.9,1.2-1.6,2-2.1c0.9-0.5,1.8-0.8,2.8-0.8c1.6,0,3,0.5,4,1.5
		c1,1,1.5,2.5,1.5,4.4v8.9H206v-8c0-2.7-1.1-4-3.3-4c-1.1,0-2,0.4-2.8,1.1C199.1,26.5,198.7,27.5,198.7,28.9z"/>
	<path class="st1" d="M82.2,53.5v16.2h-3.2V53.5h-5.8v-3H88v3H82.2z"/>
	<path class="st1" d="M98.7,58c-1.5,0-2.7,0.5-3.4,1.5c-0.8,1-1.2,2.3-1.2,4v6.3H91V55.1h3.1V58c0.5-0.9,1.2-1.7,2-2.2
		c0.9-0.6,1.8-0.9,2.7-0.9l0,3.1C98.8,58,98.8,58,98.7,58z"/>
	<path class="st1" d="M113.6,69.7h-2.8v-1.9c-1.2,1.4-2.8,2.2-4.9,2.2c-1.5,0-2.8-0.4-3.8-1.3c-1-0.9-1.5-2-1.5-3.4
		c0-1.4,0.5-2.5,1.6-3.2s2.5-1.1,4.3-1.1h4v-0.5c0-1.9-1.1-2.9-3.2-2.9c-1.4,0-2.8,0.5-4.2,1.5l-1.4-1.9c1.8-1.4,3.8-2.1,6-2.1
		c1.7,0,3.1,0.4,4.2,1.3c1.1,0.9,1.6,2.2,1.6,4.1V69.7z M110.5,64.2V63h-3.5c-2.2,0-3.3,0.7-3.3,2.1c0,0.7,0.3,1.3,0.8,1.6
		s1.3,0.6,2.3,0.6s1.8-0.3,2.6-0.8C110.2,65.9,110.5,65.2,110.5,64.2z"/>
	<path class="st1" d="M119,67.8c-1.4-1.4-2.1-3.2-2.1-5.5c0-2.3,0.7-4.1,2.1-5.4c1.4-1.4,3.1-2,5-2c1.9,0,3.5,0.8,4.7,2.5v-8h3.1
		v20.3h-3.1v-2.2c-1.1,1.6-2.8,2.4-5,2.4C122,69.9,120.4,69.2,119,67.8z M120,62.4c0,1.4,0.4,2.5,1.3,3.4c0.9,0.9,1.9,1.3,3.2,1.3
		s2.2-0.4,3.1-1.3c0.8-0.9,1.3-2,1.3-3.4c0-1.4-0.4-2.5-1.3-3.5c-0.8-0.9-1.9-1.4-3.1-1.4s-2.3,0.5-3.2,1.4
		C120.5,59.9,120,61,120,62.4z"/>
	<path class="st1" d="M149.9,63.7h-11.4c0.1,1.1,0.6,1.9,1.5,2.6c0.9,0.6,1.9,1,3.1,1c1.8,0,3.2-0.6,4.2-1.7l1.8,1.9
		c-1.6,1.6-3.6,2.4-6.1,2.4c-2,0-3.8-0.7-5.2-2c-1.4-1.4-2.2-3.2-2.2-5.5c0-2.3,0.7-4.1,2.2-5.5c1.5-1.4,3.2-2,5.2-2
		s3.7,0.6,5.1,1.8c1.4,1.2,2.1,2.8,2.1,4.9V63.7z M138.5,61.3h8.4c0-1.2-0.4-2.2-1.2-2.8c-0.8-0.7-1.7-1-2.8-1s-2.1,0.3-3,1
		S138.5,60.1,138.5,61.3z"/>
	<path class="st1" d="M164.4,69.7h-3.2V50.5h5l5.8,12l5.8-12h5v19.2h-3.2v-15L172.9,68h-1.8l-6.7-13.3V69.7z"/>
	<path class="st1" d="M199.5,69.7h-2.8v-1.9c-1.2,1.4-2.8,2.2-4.9,2.2c-1.5,0-2.8-0.4-3.8-1.3s-1.5-2-1.5-3.4c0-1.4,0.5-2.5,1.6-3.2
		c1.1-0.7,2.5-1.1,4.3-1.1h4v-0.5c0-1.9-1.1-2.9-3.2-2.9c-1.4,0-2.8,0.5-4.2,1.5l-1.4-1.9c1.8-1.4,3.8-2.1,6-2.1
		c1.7,0,3.1,0.4,4.2,1.3s1.6,2.2,1.6,4.1V69.7z M196.5,64.2V63H193c-2.2,0-3.3,0.7-3.3,2.1c0,0.7,0.3,1.3,0.8,1.6
		c0.5,0.4,1.3,0.6,2.3,0.6c1,0,1.8-0.3,2.6-0.8C196.1,65.9,196.5,65.2,196.5,64.2z"/>
	<path class="st1" d="M211.5,58c-1.5,0-2.7,0.5-3.4,1.5c-0.8,1-1.2,2.3-1.2,4v6.3h-3.1V55.1h3.1V58c0.5-0.9,1.2-1.7,2-2.2
		c0.8-0.6,1.8-0.9,2.7-0.9l0,3.1C211.6,58,211.5,58,211.5,58z"/>
	<path class="st1" d="M217.8,69.7h-3.1V49.3h3.1v12l5.9-6.2h3.9l-5.5,5.8l6,8.8h-3.7l-4.3-6.4l-2.2,2.2V69.7z"/>
	<path class="st1" d="M244.4,53c-0.9,0-1.7,0.2-2.3,0.6c-0.6,0.4-0.9,1-0.9,1.7s0.3,1.4,0.9,1.8c0.6,0.4,1.9,0.9,3.9,1.3
		c2,0.5,3.4,1.1,4.4,2c1,0.9,1.5,2.1,1.5,3.8c0,1.7-0.6,3-1.9,4.1c-1.3,1-2.9,1.6-5,1.6c-3,0-5.7-1-8-3.1l2-2.4
		c1.9,1.7,3.9,2.5,6,2.5c1,0,1.9-0.2,2.5-0.7c0.6-0.4,0.9-1,0.9-1.8s-0.3-1.3-0.9-1.7s-1.6-0.8-3-1.1c-1.4-0.3-2.5-0.6-3.2-0.9
		c-0.7-0.3-1.4-0.7-1.9-1.1c-1.1-0.9-1.7-2.2-1.7-3.9c0-1.8,0.6-3.1,1.9-4.1c1.3-1,2.9-1.4,4.8-1.4c1.2,0,2.4,0.2,3.6,0.6
		c1.2,0.4,2.2,1,3.1,1.7l-1.7,2.4c-0.6-0.5-1.3-0.9-2.3-1.3C246.3,53.2,245.3,53,244.4,53z"/>
	<path class="st1" d="M269,63.7h-11.4c0.1,1.1,0.6,1.9,1.5,2.6c0.9,0.6,1.9,1,3.1,1c1.8,0,3.2-0.6,4.2-1.7l1.8,1.9
		c-1.6,1.6-3.6,2.4-6.1,2.4c-2,0-3.8-0.7-5.2-2c-1.4-1.4-2.2-3.2-2.2-5.5c0-2.3,0.7-4.1,2.2-5.5c1.5-1.4,3.2-2,5.2-2
		s3.7,0.6,5.1,1.8c1.4,1.2,2.1,2.8,2.1,4.9V63.7z M257.6,61.3h8.4c0-1.2-0.4-2.2-1.2-2.8c-0.8-0.7-1.7-1-2.8-1s-2.1,0.3-3,1
		S257.6,60.1,257.6,61.3z"/>
	<path class="st1" d="M284.2,69.7h-2.8v-1.9c-1.2,1.4-2.8,2.2-4.9,2.2c-1.5,0-2.8-0.4-3.8-1.3s-1.5-2-1.5-3.4c0-1.4,0.5-2.5,1.6-3.2
		c1.1-0.7,2.5-1.1,4.3-1.1h4v-0.5c0-1.9-1.1-2.9-3.2-2.9c-1.4,0-2.8,0.5-4.2,1.5l-1.4-1.9c1.8-1.4,3.8-2.1,6-2.1
		c1.7,0,3.1,0.4,4.2,1.3s1.6,2.2,1.6,4.1V69.7z M281.1,64.2V63h-3.5c-2.2,0-3.3,0.7-3.3,2.1c0,0.7,0.3,1.3,0.8,1.6
		c0.5,0.4,1.3,0.6,2.3,0.6c1,0,1.8-0.3,2.6-0.8C280.7,65.9,281.1,65.2,281.1,64.2z"/>
	<path class="st1" d="M296.1,58c-1.5,0-2.7,0.5-3.4,1.5c-0.8,1-1.2,2.3-1.2,4v6.3h-3.1V55.1h3.1V58c0.5-0.9,1.2-1.7,2-2.2
		c0.8-0.6,1.8-0.9,2.7-0.9l0,3.1C296.2,58,296.2,58,296.1,58z"/>
	<path class="st1" d="M305.8,69.9c-2,0-3.8-0.7-5.2-2.1c-1.5-1.4-2.2-3.2-2.2-5.4c0-2.2,0.8-4,2.3-5.4s3.4-2.1,5.6-2.1
		s4,0.8,5.6,2.3l-1.8,2.2c-1.3-1.1-2.5-1.6-3.8-1.6c-1.3,0-2.4,0.4-3.3,1.3s-1.4,1.9-1.4,3.3c0,1.3,0.5,2.5,1.4,3.4
		c0.9,0.9,2.1,1.4,3.4,1.4c1.4,0,2.6-0.6,3.9-1.9l1.8,2C310.2,69,308.1,69.9,305.8,69.9z"/>
	<path class="st1" d="M318.2,61.8v7.9h-3.1V49.4h3.1v8.4c0.4-0.9,1.1-1.6,2-2.1c0.9-0.5,1.8-0.8,2.9-0.8c1.6,0,3,0.5,4,1.5
		c1,1,1.5,2.5,1.5,4.4v8.9h-3.1v-8c0-2.7-1.1-4-3.3-4c-1.1,0-2,0.4-2.8,1.1C318.6,59.4,318.2,60.4,318.2,61.8z"/>
</g>
<g>
	<circle class="st2" cx="35.2" cy="45" r="26.1"/>
	<g>
		<path class="st3" d="M29.9,41.4v9.9h-3.1v-9.9h-3.1v-2.8h9.4v2.8H29.9z"/>
		<path class="st3" d="M43.6,51.3v-6.1l-1.8,3.1h-2L38,45.3v6.1h-3.1V38.7h3.1l2.8,5.6l2.8-5.6h3.1v12.7H43.6z"/>
	</g>
</g>
</svg>
